<mxfile host="app.diagrams.net" modified="2020-09-30T02:50:18.205Z" agent="5.0 (Macintosh; Intel Mac OS X 10_14_3) AppleWebKit/537.36 (KHTML, like Gecko) Chrome/85.0.4183.102 Safari/537.36" etag="IPcANl1odaTADhHPsJ5a" version="13.6.6" type="github">
  <diagram id="AhcTYbTHqIGz7-ErN-gI" name="Page-1">
    <mxGraphModel dx="2037" dy="1306" grid="1" gridSize="10" guides="1" tooltips="1" connect="1" arrows="1" fold="1" page="1" pageScale="1" pageWidth="827" pageHeight="1169" math="0" shadow="0">
      <root>
        <mxCell id="0" />
        <mxCell id="1" parent="0" />
        <mxCell id="kVSlHKygk5KjAP_eqK5W-1" style="edgeStyle=none;rounded=0;orthogonalLoop=1;jettySize=auto;html=1;entryX=0.5;entryY=0;entryDx=0;entryDy=0;exitX=0.5;exitY=1;exitDx=0;exitDy=0;" edge="1" parent="1" source="kVSlHKygk5KjAP_eqK5W-5" target="kVSlHKygk5KjAP_eqK5W-16">
          <mxGeometry relative="1" as="geometry" />
        </mxCell>
        <mxCell id="kVSlHKygk5KjAP_eqK5W-2" value="DOM 解析" style="edgeLabel;html=1;align=center;verticalAlign=middle;resizable=0;points=[];" vertex="1" connectable="0" parent="kVSlHKygk5KjAP_eqK5W-1">
          <mxGeometry x="-0.0485" y="1" relative="1" as="geometry">
            <mxPoint as="offset" />
          </mxGeometry>
        </mxCell>
        <mxCell id="kVSlHKygk5KjAP_eqK5W-3" style="edgeStyle=none;rounded=0;orthogonalLoop=1;jettySize=auto;html=1;exitX=0.5;exitY=1;exitDx=0;exitDy=0;" edge="1" parent="1" source="kVSlHKygk5KjAP_eqK5W-5" target="kVSlHKygk5KjAP_eqK5W-18">
          <mxGeometry relative="1" as="geometry" />
        </mxCell>
        <mxCell id="kVSlHKygk5KjAP_eqK5W-4" value="SAX 解析" style="edgeLabel;html=1;align=center;verticalAlign=middle;resizable=0;points=[];" vertex="1" connectable="0" parent="kVSlHKygk5KjAP_eqK5W-3">
          <mxGeometry x="-0.1092" y="-1" relative="1" as="geometry">
            <mxPoint as="offset" />
          </mxGeometry>
        </mxCell>
        <mxCell id="kVSlHKygk5KjAP_eqK5W-5" value="xml 文件" style="rounded=0;whiteSpace=wrap;html=1;fillColor=#1ba1e2;strokeColor=#006EAF;fontColor=#ffffff;" vertex="1" parent="1">
          <mxGeometry x="366" y="70" width="63" height="40" as="geometry" />
        </mxCell>
        <mxCell id="kVSlHKygk5KjAP_eqK5W-6" value="price" style="rounded=0;whiteSpace=wrap;html=1;fillColor=#fa6800;strokeColor=#C73500;fontColor=#ffffff;" vertex="1" parent="1">
          <mxGeometry x="337" y="380" width="63" height="40" as="geometry" />
        </mxCell>
        <mxCell id="kVSlHKygk5KjAP_eqK5W-7" value="quality" style="rounded=0;whiteSpace=wrap;html=1;fillColor=#fa6800;strokeColor=#C73500;fontColor=#ffffff;" vertex="1" parent="1">
          <mxGeometry x="256" y="380" width="63" height="40" as="geometry" />
        </mxCell>
        <mxCell id="kVSlHKygk5KjAP_eqK5W-8" value="name" style="rounded=0;whiteSpace=wrap;html=1;fillColor=#fa6800;strokeColor=#C73500;fontColor=#ffffff;" vertex="1" parent="1">
          <mxGeometry x="173" y="380" width="63" height="40" as="geometry" />
        </mxCell>
        <mxCell id="kVSlHKygk5KjAP_eqK5W-9" style="edgeStyle=none;rounded=0;orthogonalLoop=1;jettySize=auto;html=1;entryX=0.5;entryY=0;entryDx=0;entryDy=0;exitX=0.5;exitY=1;exitDx=0;exitDy=0;" edge="1" parent="1" source="kVSlHKygk5KjAP_eqK5W-12" target="kVSlHKygk5KjAP_eqK5W-8">
          <mxGeometry relative="1" as="geometry" />
        </mxCell>
        <mxCell id="kVSlHKygk5KjAP_eqK5W-10" style="edgeStyle=none;rounded=0;orthogonalLoop=1;jettySize=auto;html=1;entryX=0.5;entryY=0;entryDx=0;entryDy=0;" edge="1" parent="1" source="kVSlHKygk5KjAP_eqK5W-12" target="kVSlHKygk5KjAP_eqK5W-7">
          <mxGeometry relative="1" as="geometry" />
        </mxCell>
        <mxCell id="kVSlHKygk5KjAP_eqK5W-11" style="edgeStyle=none;rounded=0;orthogonalLoop=1;jettySize=auto;html=1;entryX=0.5;entryY=0;entryDx=0;entryDy=0;exitX=0.5;exitY=1;exitDx=0;exitDy=0;" edge="1" parent="1" source="kVSlHKygk5KjAP_eqK5W-12" target="kVSlHKygk5KjAP_eqK5W-6">
          <mxGeometry relative="1" as="geometry" />
        </mxCell>
        <mxCell id="kVSlHKygk5KjAP_eqK5W-12" value="product" style="rounded=0;whiteSpace=wrap;html=1;fillColor=#fa6800;strokeColor=#C73500;fontColor=#ffffff;" vertex="1" parent="1">
          <mxGeometry x="256" y="270" width="63" height="40" as="geometry" />
        </mxCell>
        <mxCell id="kVSlHKygk5KjAP_eqK5W-13" value="customer" style="rounded=0;whiteSpace=wrap;html=1;fillColor=#fa6800;strokeColor=#C73500;fontColor=#ffffff;" vertex="1" parent="1">
          <mxGeometry x="130" y="270" width="63" height="40" as="geometry" />
        </mxCell>
        <mxCell id="kVSlHKygk5KjAP_eqK5W-14" style="rounded=0;orthogonalLoop=1;jettySize=auto;html=1;entryX=0.5;entryY=0;entryDx=0;entryDy=0;exitX=0.5;exitY=1;exitDx=0;exitDy=0;" edge="1" parent="1" source="kVSlHKygk5KjAP_eqK5W-16" target="kVSlHKygk5KjAP_eqK5W-13">
          <mxGeometry relative="1" as="geometry" />
        </mxCell>
        <mxCell id="kVSlHKygk5KjAP_eqK5W-15" style="rounded=0;orthogonalLoop=1;jettySize=auto;html=1;entryX=0.5;entryY=0;entryDx=0;entryDy=0;exitX=0.5;exitY=1;exitDx=0;exitDy=0;" edge="1" parent="1" source="kVSlHKygk5KjAP_eqK5W-16" target="kVSlHKygk5KjAP_eqK5W-12">
          <mxGeometry relative="1" as="geometry" />
        </mxCell>
        <mxCell id="kVSlHKygk5KjAP_eqK5W-16" value="order" style="rounded=0;whiteSpace=wrap;html=1;fillColor=#fa6800;strokeColor=#C73500;fontColor=#ffffff;" vertex="1" parent="1">
          <mxGeometry x="192" y="180" width="63" height="40" as="geometry" />
        </mxCell>
        <mxCell id="kVSlHKygk5KjAP_eqK5W-42" value="应用" style="rounded=0;whiteSpace=wrap;html=1;fillColor=#6d8764;strokeColor=#3A5431;fontColor=#ffffff;" vertex="1" parent="1">
          <mxGeometry x="129" y="480" width="570" height="40" as="geometry" />
        </mxCell>
        <mxCell id="kVSlHKygk5KjAP_eqK5W-43" value="" style="endArrow=classic;html=1;" edge="1" parent="1">
          <mxGeometry width="50" height="50" relative="1" as="geometry">
            <mxPoint x="192" y="480" as="sourcePoint" />
            <mxPoint x="192" y="430" as="targetPoint" />
          </mxGeometry>
        </mxCell>
        <mxCell id="kVSlHKygk5KjAP_eqK5W-44" value="" style="endArrow=classic;html=1;" edge="1" parent="1">
          <mxGeometry width="50" height="50" relative="1" as="geometry">
            <mxPoint x="208" y="480" as="sourcePoint" />
            <mxPoint x="208" y="430" as="targetPoint" />
          </mxGeometry>
        </mxCell>
        <mxCell id="kVSlHKygk5KjAP_eqK5W-45" value="" style="endArrow=classic;html=1;" edge="1" parent="1">
          <mxGeometry width="50" height="50" relative="1" as="geometry">
            <mxPoint x="223" y="480" as="sourcePoint" />
            <mxPoint x="223" y="430" as="targetPoint" />
          </mxGeometry>
        </mxCell>
        <mxCell id="kVSlHKygk5KjAP_eqK5W-46" value="" style="endArrow=classic;html=1;" edge="1" parent="1">
          <mxGeometry width="50" height="50" relative="1" as="geometry">
            <mxPoint x="236" y="480" as="sourcePoint" />
            <mxPoint x="236" y="430" as="targetPoint" />
          </mxGeometry>
        </mxCell>
        <mxCell id="kVSlHKygk5KjAP_eqK5W-47" value="" style="endArrow=classic;html=1;" edge="1" parent="1">
          <mxGeometry width="50" height="50" relative="1" as="geometry">
            <mxPoint x="249.5" y="480" as="sourcePoint" />
            <mxPoint x="249.5" y="430" as="targetPoint" />
          </mxGeometry>
        </mxCell>
        <mxCell id="kVSlHKygk5KjAP_eqK5W-48" value="" style="endArrow=classic;html=1;" edge="1" parent="1">
          <mxGeometry width="50" height="50" relative="1" as="geometry">
            <mxPoint x="263" y="480" as="sourcePoint" />
            <mxPoint x="263" y="430" as="targetPoint" />
          </mxGeometry>
        </mxCell>
        <mxCell id="kVSlHKygk5KjAP_eqK5W-49" value="" style="endArrow=classic;html=1;entryX=0.67;entryY=0.025;entryDx=0;entryDy=0;entryPerimeter=0;" edge="1" parent="1">
          <mxGeometry width="50" height="50" relative="1" as="geometry">
            <mxPoint x="511" y="429" as="sourcePoint" />
            <mxPoint x="510.9000000000001" y="480" as="targetPoint" />
          </mxGeometry>
        </mxCell>
        <mxCell id="kVSlHKygk5KjAP_eqK5W-50" value="" style="endArrow=classic;html=1;entryX=0.67;entryY=0.025;entryDx=0;entryDy=0;entryPerimeter=0;" edge="1" parent="1">
          <mxGeometry width="50" height="50" relative="1" as="geometry">
            <mxPoint x="523" y="429" as="sourcePoint" />
            <mxPoint x="522.9000000000001" y="480" as="targetPoint" />
          </mxGeometry>
        </mxCell>
        <mxCell id="kVSlHKygk5KjAP_eqK5W-51" value="" style="endArrow=classic;html=1;entryX=0.67;entryY=0.025;entryDx=0;entryDy=0;entryPerimeter=0;" edge="1" parent="1">
          <mxGeometry width="50" height="50" relative="1" as="geometry">
            <mxPoint x="535" y="429" as="sourcePoint" />
            <mxPoint x="534.9000000000001" y="480" as="targetPoint" />
          </mxGeometry>
        </mxCell>
        <mxCell id="kVSlHKygk5KjAP_eqK5W-52" value="" style="endArrow=classic;html=1;entryX=0.67;entryY=0.025;entryDx=0;entryDy=0;entryPerimeter=0;" edge="1" parent="1">
          <mxGeometry width="50" height="50" relative="1" as="geometry">
            <mxPoint x="547" y="429" as="sourcePoint" />
            <mxPoint x="546.9000000000001" y="480" as="targetPoint" />
          </mxGeometry>
        </mxCell>
        <mxCell id="kVSlHKygk5KjAP_eqK5W-53" value="" style="endArrow=classic;html=1;entryX=0.67;entryY=0.025;entryDx=0;entryDy=0;entryPerimeter=0;" edge="1" parent="1">
          <mxGeometry width="50" height="50" relative="1" as="geometry">
            <mxPoint x="559" y="429" as="sourcePoint" />
            <mxPoint x="558.9000000000001" y="480" as="targetPoint" />
          </mxGeometry>
        </mxCell>
        <mxCell id="kVSlHKygk5KjAP_eqK5W-54" value="" style="endArrow=classic;html=1;entryX=0.67;entryY=0.025;entryDx=0;entryDy=0;entryPerimeter=0;" edge="1" parent="1">
          <mxGeometry width="50" height="50" relative="1" as="geometry">
            <mxPoint x="571" y="429" as="sourcePoint" />
            <mxPoint x="570.9000000000001" y="480" as="targetPoint" />
          </mxGeometry>
        </mxCell>
        <mxCell id="kVSlHKygk5KjAP_eqK5W-55" value="DOM 调用" style="text;html=1;align=center;verticalAlign=middle;resizable=0;points=[];autosize=1;" vertex="1" parent="1">
          <mxGeometry x="271" y="450" width="70" height="20" as="geometry" />
        </mxCell>
        <mxCell id="kVSlHKygk5KjAP_eqK5W-56" value="SAX 事件" style="text;html=1;align=center;verticalAlign=middle;resizable=0;points=[];autosize=1;" vertex="1" parent="1">
          <mxGeometry x="581" y="450" width="70" height="20" as="geometry" />
        </mxCell>
        <mxCell id="kVSlHKygk5KjAP_eqK5W-17" value="" style="shape=table;html=1;whiteSpace=wrap;startSize=0;container=1;collapsible=0;childLayout=tableLayout;" vertex="1" parent="1">
          <mxGeometry x="439" y="180" width="260" height="240" as="geometry" />
        </mxCell>
        <mxCell id="kVSlHKygk5KjAP_eqK5W-18" value="" style="shape=partialRectangle;html=1;whiteSpace=wrap;collapsible=0;dropTarget=0;pointerEvents=0;fillColor=none;top=0;left=0;bottom=0;right=0;points=[[0,0.5],[1,0.5]];portConstraint=eastwest;" vertex="1" parent="kVSlHKygk5KjAP_eqK5W-17">
          <mxGeometry width="260" height="30" as="geometry" />
        </mxCell>
        <mxCell id="kVSlHKygk5KjAP_eqK5W-19" value="&lt;span&gt;startDocument&lt;/span&gt;" style="shape=partialRectangle;html=1;whiteSpace=wrap;connectable=0;overflow=hidden;fillColor=#d5e8d4;top=0;left=0;bottom=0;right=0;strokeColor=#82b366;" vertex="1" parent="kVSlHKygk5KjAP_eqK5W-18">
          <mxGeometry width="130" height="30" as="geometry" />
        </mxCell>
        <mxCell id="kVSlHKygk5KjAP_eqK5W-20" value="" style="shape=partialRectangle;html=1;whiteSpace=wrap;connectable=0;overflow=hidden;fillColor=#d5e8d4;top=0;left=0;bottom=0;right=0;strokeColor=#82b366;" vertex="1" parent="kVSlHKygk5KjAP_eqK5W-18">
          <mxGeometry x="130" width="130" height="30" as="geometry" />
        </mxCell>
        <mxCell id="kVSlHKygk5KjAP_eqK5W-21" value="" style="shape=partialRectangle;html=1;whiteSpace=wrap;collapsible=0;dropTarget=0;pointerEvents=0;fillColor=none;top=0;left=0;bottom=0;right=0;points=[[0,0.5],[1,0.5]];portConstraint=eastwest;" vertex="1" parent="kVSlHKygk5KjAP_eqK5W-17">
          <mxGeometry y="30" width="260" height="30" as="geometry" />
        </mxCell>
        <mxCell id="kVSlHKygk5KjAP_eqK5W-22" value="&lt;span&gt;startElement&lt;/span&gt;" style="shape=partialRectangle;html=1;whiteSpace=wrap;connectable=0;overflow=hidden;fillColor=none;top=0;left=0;bottom=0;right=0;" vertex="1" parent="kVSlHKygk5KjAP_eqK5W-21">
          <mxGeometry width="130" height="30" as="geometry" />
        </mxCell>
        <mxCell id="kVSlHKygk5KjAP_eqK5W-23" value="&lt;span&gt;order&lt;/span&gt;" style="shape=partialRectangle;html=1;whiteSpace=wrap;connectable=0;overflow=hidden;fillColor=none;top=0;left=0;bottom=0;right=0;" vertex="1" parent="kVSlHKygk5KjAP_eqK5W-21">
          <mxGeometry x="130" width="130" height="30" as="geometry" />
        </mxCell>
        <mxCell id="kVSlHKygk5KjAP_eqK5W-24" value="" style="shape=partialRectangle;html=1;whiteSpace=wrap;collapsible=0;dropTarget=0;pointerEvents=0;fillColor=none;top=0;left=0;bottom=0;right=0;points=[[0,0.5],[1,0.5]];portConstraint=eastwest;" vertex="1" parent="kVSlHKygk5KjAP_eqK5W-17">
          <mxGeometry y="60" width="260" height="30" as="geometry" />
        </mxCell>
        <mxCell id="kVSlHKygk5KjAP_eqK5W-25" value="&lt;span&gt;startElement&lt;/span&gt;" style="shape=partialRectangle;html=1;whiteSpace=wrap;connectable=0;overflow=hidden;fillColor=#d5e8d4;top=0;left=0;bottom=0;right=0;strokeColor=#82b366;" vertex="1" parent="kVSlHKygk5KjAP_eqK5W-24">
          <mxGeometry width="130" height="30" as="geometry" />
        </mxCell>
        <mxCell id="kVSlHKygk5KjAP_eqK5W-26" value="&lt;span&gt;customer&lt;/span&gt;" style="shape=partialRectangle;html=1;whiteSpace=wrap;connectable=0;overflow=hidden;fillColor=#d5e8d4;top=0;left=0;bottom=0;right=0;strokeColor=#82b366;" vertex="1" parent="kVSlHKygk5KjAP_eqK5W-24">
          <mxGeometry x="130" width="130" height="30" as="geometry" />
        </mxCell>
        <mxCell id="kVSlHKygk5KjAP_eqK5W-27" value="" style="shape=partialRectangle;html=1;whiteSpace=wrap;collapsible=0;dropTarget=0;pointerEvents=0;fillColor=none;top=0;left=0;bottom=0;right=0;points=[[0,0.5],[1,0.5]];portConstraint=eastwest;" vertex="1" parent="kVSlHKygk5KjAP_eqK5W-17">
          <mxGeometry y="90" width="260" height="30" as="geometry" />
        </mxCell>
        <mxCell id="kVSlHKygk5KjAP_eqK5W-28" value="&lt;span&gt;characters&lt;/span&gt;" style="shape=partialRectangle;html=1;whiteSpace=wrap;connectable=0;overflow=hidden;fillColor=none;top=0;left=0;bottom=0;right=0;" vertex="1" parent="kVSlHKygk5KjAP_eqK5W-27">
          <mxGeometry width="130" height="30" as="geometry" />
        </mxCell>
        <mxCell id="kVSlHKygk5KjAP_eqK5W-29" value="&lt;span&gt;张三&lt;/span&gt;" style="shape=partialRectangle;html=1;whiteSpace=wrap;connectable=0;overflow=hidden;fillColor=none;top=0;left=0;bottom=0;right=0;" vertex="1" parent="kVSlHKygk5KjAP_eqK5W-27">
          <mxGeometry x="130" width="130" height="30" as="geometry" />
        </mxCell>
        <mxCell id="kVSlHKygk5KjAP_eqK5W-30" value="" style="shape=partialRectangle;html=1;whiteSpace=wrap;collapsible=0;dropTarget=0;pointerEvents=0;fillColor=none;top=0;left=0;bottom=0;right=0;points=[[0,0.5],[1,0.5]];portConstraint=eastwest;" vertex="1" parent="kVSlHKygk5KjAP_eqK5W-17">
          <mxGeometry y="120" width="260" height="30" as="geometry" />
        </mxCell>
        <mxCell id="kVSlHKygk5KjAP_eqK5W-31" value="&lt;span&gt;startElement&lt;/span&gt;" style="shape=partialRectangle;html=1;whiteSpace=wrap;connectable=0;overflow=hidden;fillColor=#d5e8d4;top=0;left=0;bottom=0;right=0;strokeColor=#82b366;" vertex="1" parent="kVSlHKygk5KjAP_eqK5W-30">
          <mxGeometry width="130" height="30" as="geometry" />
        </mxCell>
        <mxCell id="kVSlHKygk5KjAP_eqK5W-32" value="&lt;span&gt;product&lt;/span&gt;" style="shape=partialRectangle;html=1;whiteSpace=wrap;connectable=0;overflow=hidden;fillColor=#d5e8d4;top=0;left=0;bottom=0;right=0;strokeColor=#82b366;" vertex="1" parent="kVSlHKygk5KjAP_eqK5W-30">
          <mxGeometry x="130" width="130" height="30" as="geometry" />
        </mxCell>
        <mxCell id="kVSlHKygk5KjAP_eqK5W-33" value="" style="shape=partialRectangle;html=1;whiteSpace=wrap;collapsible=0;dropTarget=0;pointerEvents=0;fillColor=none;top=0;left=0;bottom=0;right=0;points=[[0,0.5],[1,0.5]];portConstraint=eastwest;" vertex="1" parent="kVSlHKygk5KjAP_eqK5W-17">
          <mxGeometry y="150" width="260" height="30" as="geometry" />
        </mxCell>
        <mxCell id="kVSlHKygk5KjAP_eqK5W-34" value="&lt;span&gt;...&lt;/span&gt;" style="shape=partialRectangle;html=1;whiteSpace=wrap;connectable=0;overflow=hidden;fillColor=none;top=0;left=0;bottom=0;right=0;" vertex="1" parent="kVSlHKygk5KjAP_eqK5W-33">
          <mxGeometry width="130" height="30" as="geometry" />
        </mxCell>
        <mxCell id="kVSlHKygk5KjAP_eqK5W-35" value="..." style="shape=partialRectangle;html=1;whiteSpace=wrap;connectable=0;overflow=hidden;fillColor=none;top=0;left=0;bottom=0;right=0;" vertex="1" parent="kVSlHKygk5KjAP_eqK5W-33">
          <mxGeometry x="130" width="130" height="30" as="geometry" />
        </mxCell>
        <mxCell id="kVSlHKygk5KjAP_eqK5W-36" value="" style="shape=partialRectangle;html=1;whiteSpace=wrap;collapsible=0;dropTarget=0;pointerEvents=0;fillColor=none;top=0;left=0;bottom=0;right=0;points=[[0,0.5],[1,0.5]];portConstraint=eastwest;" vertex="1" parent="kVSlHKygk5KjAP_eqK5W-17">
          <mxGeometry y="180" width="260" height="30" as="geometry" />
        </mxCell>
        <mxCell id="kVSlHKygk5KjAP_eqK5W-37" value="&lt;span&gt;endElement&lt;/span&gt;" style="shape=partialRectangle;html=1;whiteSpace=wrap;connectable=0;overflow=hidden;fillColor=#d5e8d4;top=0;left=0;bottom=0;right=0;strokeColor=#82b366;" vertex="1" parent="kVSlHKygk5KjAP_eqK5W-36">
          <mxGeometry width="130" height="30" as="geometry" />
        </mxCell>
        <mxCell id="kVSlHKygk5KjAP_eqK5W-38" value="&lt;span&gt;order&lt;/span&gt;" style="shape=partialRectangle;html=1;whiteSpace=wrap;connectable=0;overflow=hidden;fillColor=#d5e8d4;top=0;left=0;bottom=0;right=0;strokeColor=#82b366;" vertex="1" parent="kVSlHKygk5KjAP_eqK5W-36">
          <mxGeometry x="130" width="130" height="30" as="geometry" />
        </mxCell>
        <mxCell id="kVSlHKygk5KjAP_eqK5W-39" value="" style="shape=partialRectangle;html=1;whiteSpace=wrap;collapsible=0;dropTarget=0;pointerEvents=0;fillColor=none;top=0;left=0;bottom=0;right=0;points=[[0,0.5],[1,0.5]];portConstraint=eastwest;" vertex="1" parent="kVSlHKygk5KjAP_eqK5W-17">
          <mxGeometry y="210" width="260" height="30" as="geometry" />
        </mxCell>
        <mxCell id="kVSlHKygk5KjAP_eqK5W-40" value="&lt;span&gt;endDocument&lt;/span&gt;" style="shape=partialRectangle;html=1;whiteSpace=wrap;connectable=0;overflow=hidden;fillColor=none;top=0;left=0;bottom=0;right=0;" vertex="1" parent="kVSlHKygk5KjAP_eqK5W-39">
          <mxGeometry width="130" height="30" as="geometry" />
        </mxCell>
        <mxCell id="kVSlHKygk5KjAP_eqK5W-41" value="" style="shape=partialRectangle;html=1;whiteSpace=wrap;connectable=0;overflow=hidden;fillColor=none;top=0;left=0;bottom=0;right=0;" vertex="1" parent="kVSlHKygk5KjAP_eqK5W-39">
          <mxGeometry x="130" width="130" height="30" as="geometry" />
        </mxCell>
      </root>
    </mxGraphModel>
  </diagram>
</mxfile>
